<?xml version="1.0" encoding="UTF-8"?>
<svg id="Capa_2" data-name="Capa 2" xmlns="http://www.w3.org/2000/svg" viewBox="0 0 21.11 21.11">
  <defs>
    <style>
      .cls-1 {
        fill: #1c2541;
      }
    </style>
  </defs>
  <g id="Capa_1-2" data-name="Capa 1">
    <g id="_2069a460dcf28295e231f3111e03585e" data-name="2069a460dcf28295e231f3111e03585e">
      <path class="cls-1" d="M9.38,8.98l.79,2.48h-2.59l.78-2.48c.18-.6.33-1.3.48-1.88h.03c.15.58.31,1.27.51,1.88ZM21.11,3.52v14.07c0,1.94-1.58,3.52-3.52,3.52H3.52c-1.94,0-3.52-1.58-3.52-3.52V3.52C0,1.58,1.58,0,3.52,0h14.07c1.94,0,3.52,1.58,3.52,3.52ZM13.37,15.71l-3.28-10.08h-2.35l-3.23,10.08h1.9l.87-2.86h3.2l.91,2.86h1.97ZM16.48,8.43h-1.85v7.28h1.85v-7.28ZM16.59,6.4c-.01-.57-.4-1-1.03-1s-1.03.43-1.03,1,.4.99,1.02.99c.64,0,1.05-.43,1.05-.99Z"/>
    </g>
  </g>
</svg>