<?xml version="1.0" encoding="UTF-8"?>
<svg id="Capa_2" data-name="Capa 2" xmlns="http://www.w3.org/2000/svg" viewBox="0 0 27.07 21.57">
  <defs>
    <style>
      .cls-1 {
        fill: #1c2541;
        fill-rule: evenodd;
      }
    </style>
  </defs>
  <g id="Capa_1-2" data-name="Capa 1">
    <path class="cls-1" d="M5.62,0c-1.54,0-2.69,1.35-2.64,2.82.05,1.41-.01,3.23-.47,4.72-.46,1.49-1.24,2.44-2.51,2.56v1.37c1.27.12,2.05,1.07,2.51,2.56.46,1.49.52,3.31.47,4.72-.05,1.47,1.09,2.82,2.64,2.82h15.83c1.54,0,2.69-1.35,2.64-2.82-.05-1.41.01-3.23.47-4.72.46-1.49,1.24-2.44,2.51-2.56v-1.37c-1.27-.12-2.05-1.07-2.51-2.56-.46-1.49-.52-3.31-.47-4.72.05-1.47-1.09-2.82-2.64-2.82H5.62h0ZM18.35,13.28c0,2.02-1.51,3.24-4.01,3.24h-4.25c-.12,0-.24-.05-.32-.13-.09-.09-.13-.2-.13-.32V5.51c0-.12.05-.24.13-.32.09-.09.2-.13.32-.13h4.23c2.08,0,3.45,1.13,3.45,2.86,0,1.22-.92,2.31-2.09,2.5v.06c1.6.18,2.67,1.28,2.67,2.81ZM13.89,6.5h-2.43v3.43h2.04c1.58,0,2.45-.64,2.45-1.77,0-1.07-.75-1.65-2.07-1.65ZM11.46,11.29v3.78h2.52c1.64,0,2.52-.66,2.52-1.9s-.9-1.88-2.62-1.88h-2.41Z"/>
  </g>
</svg>