<?xml version="1.0" encoding="UTF-8"?>
<svg id="Capa_2" data-name="Capa 2" xmlns="http://www.w3.org/2000/svg" viewBox="0 0 16.5 21.57">
  <defs>
    <style>
      .cls-1 {
        fill: #1c2541;
      }
    </style>
  </defs>
  <g id="Capa_1-2" data-name="Capa 1">
    <g id="_2069a460dcf28295e231f3111e0396ed" data-name="2069a460dcf28295e231f3111e0396ed">
      <path class="cls-1" d="M7.56,19.54h1.39c.25,0,.46.21.46.46v1.11c0,.25-.21.46-.46.46h-1.39c-.25,0-.46-.21-.46-.46v-1.11c0-.25.21-.46.46-.46h0ZM1.77,6.14c.02,3.44,2.93,8.79,5.63,12.49h.27c-2.05-3.74-3.8-8.35-3.82-11.99-.01-3.3,1.33-5.39,3.15-6.59-.4.04-.81.09-1.21.17C3.56,1.12,1.76,2.96,1.77,6.14h0ZM7.71.01c-1.05,1.41-1.86,3.42-1.85,6.33,0,3.8.9,8.31,2.04,12.29h.7c1.15-3.98,2.03-8.5,2.04-12.29,0-2.91-.8-4.91-1.85-6.33-.36-.01-.72-.01-1.08,0h0ZM14.73,6.14c-.02,3.44-2.93,8.79-5.63,12.49h-.27c2.05-3.74,3.8-8.35,3.82-11.99.01-3.3-1.33-5.39-3.15-6.59.4.04.81.09,1.21.17,2.24.89,4.04,2.73,4.02,5.91h0ZM9.28,18.63c3.02-3.18,6.44-8.49,6.47-12.58.01-2.51-1.21-4.17-2.92-5.19,2.1.9,3.69,2.56,3.68,5.26-.02,4.16-4.01,9.65-7.17,12.51h-.05ZM7.22,18.63C4.2,15.46.78,10.15.76,6.05c-.01-2.51,1.21-4.17,2.92-5.19C1.58,1.76-.02,3.42,0,6.12c.02,4.16,4.01,9.65,7.17,12.51h.05Z"/>
    </g>
  </g>
</svg>