<?xml version="1.0" encoding="UTF-8"?>
<svg id="Capa_2" data-name="Capa 2" xmlns="http://www.w3.org/2000/svg" viewBox="0 0 17.2 19.35">
  <defs>
    <style>
      .cls-1 {
        fill: #1c2541;
      }
    </style>
  </defs>
  <g id="Capa_1-2" data-name="Capa 1">
    <g id="c133de6af664cd4f011a55de6b001b19">
      <path class="cls-1" d="M17.2,0l-1.61,17.47-6.99,1.88-6.99-1.88L0,0h17.2ZM13.95,3.55H3.14l.26,2.11h5.48l-.29.12-5,2.08.17,2.06,4.84.02h2.59s-.17,2.76-.17,2.76l-2.43.68h0s-.02,0-.02,0l-2.34-.59-.14-1.71h-2.19l.28,3.3,4.41,1.3h0s0,0,0,0l4.39-1.28.57-6.54h-4.97.01s5.14-2.2,5.14-2.2l.21-2.11Z"/>
    </g>
  </g>
</svg>