<?xml version="1.0" encoding="UTF-8"?>
<svg id="Capa_2" data-name="Capa 2" xmlns="http://www.w3.org/2000/svg" viewBox="0 0 14.07 21.57">
  <defs>
    <style>
      .cls-1 {
        fill: #1c2541;
      }
    </style>
  </defs>
  <g id="Capa_1-2" data-name="Capa 1">
    <g>
      <path class="cls-1" d="M6.56,0h-3.28C1.47,0,0,1.47,0,3.28s1.47,3.28,3.28,3.28h3.28V0Z"/>
      <path class="cls-1" d="M7.5,0h3.28c1.81,0,3.28,1.47,3.28,3.28s-1.47,3.28-3.28,3.28h-3.28V0Z"/>
      <path class="cls-1" d="M6.56,7.5h-3.28c-1.81,0-3.28,1.47-3.28,3.28s1.47,3.28,3.28,3.28h3.28v-6.56Z"/>
      <path class="cls-1" d="M6.56,15h-3.28c-1.81,0-3.28,1.47-3.28,3.28s1.47,3.28,3.28,3.28,3.28-1.47,3.28-3.28v-3.28Z"/>
      <path class="cls-1" d="M10.78,14.07c1.81,0,3.28-1.47,3.28-3.28s-1.47-3.28-3.28-3.28-3.28,1.47-3.28,3.28,1.47,3.28,3.28,3.28Z"/>
    </g>
  </g>
</svg>