<?xml version="1.0" encoding="UTF-8"?>
<svg id="Capa_2" data-name="Capa 2" xmlns="http://www.w3.org/2000/svg" viewBox="0 0 17.06 19.35">
  <defs>
    <style>
      .cls-1 {
        fill: #1c2541;
      }
    </style>
  </defs>
  <g id="Capa_1-2" data-name="Capa 1">
    <path class="cls-1" d="M0,0l1.55,17.42,6.97,1.93,6.99-1.94L17.06,0H0ZM13.82,4.13l-.1,1.08-.04.48H5.51l.2,2.19h2.83s4.96,0,4.96,0l-.05.57-.5,5.62-.03.36-4.37,1.21h0s0,0,0,0l-4.38-1.21-.3-3.35h2.14l.15,1.7,2.38.64h0s2.38-.64,2.38-.64l.25-2.77H3.75l-.53-5.89-.05-.57h10.7l-.05.57Z"/>
  </g>
</svg>