<?xml version="1.0" encoding="UTF-8"?>
<svg id="Capa_2" data-name="Capa 2" xmlns="http://www.w3.org/2000/svg" viewBox="0 0 21.08 21.08">
  <defs>
    <style>
      .cls-1 {
        fill: #1c2541;
      }
    </style>
  </defs>
  <g id="Capa_1-2" data-name="Capa 1">
    <g id="_2069a460dcf28295e231f3111e035a9d" data-name="2069a460dcf28295e231f3111e035a9d">
      <path class="cls-1" d="M13.91,11.04c.03.15.04.33.04.48v1.09c0,.19-.01.37-.06.54-.18.79-.84,1.3-1.58,1.3-1.16,0-1.82-.97-1.82-2.3s.66-2.4,1.84-2.4c.84,0,1.42.58,1.58,1.3ZM21.08,3.51v14.05c0,1.93-1.58,3.51-3.51,3.51H3.51c-1.93,0-3.51-1.58-3.51-3.51V3.51C0,1.58,1.58,0,3.51,0h14.05c1.93,0,3.51,1.58,3.51,3.51ZM7.06,5.69h-1.84v10.06h1.84V5.69ZM15.85,15.76c-.03-.49-.06-1.3-.06-2.05V5.16h-1.84v4.12h-.03c-.33-.54-1.05-.96-2.05-.96-1.75,0-3.27,1.45-3.25,3.88,0,2.24,1.37,3.72,3.11,3.72,1.06,0,1.94-.51,2.37-1.31h.03l.07,1.15h1.64Z"/>
    </g>
  </g>
</svg>