<?xml version="1.0" encoding="UTF-8"?>
<svg id="Capa_2" data-name="Capa 2" xmlns="http://www.w3.org/2000/svg" viewBox="0 0 19.35 19.35">
  <defs>
    <style>
      .cls-1 {
        fill: #1c2541;
        fill-rule: evenodd;
      }
    </style>
  </defs>
  <g id="Capa_1-2" data-name="Capa 1">
    <g id="_5151e0c8492e5103c096af88a51e75c7" data-name="5151e0c8492e5103c096af88a51e75c7">
      <path class="cls-1" d="M.02,0S0,.03,0,.06v19.28c6.41.04,12.91,0,19.35.02V0H.02ZM9.82,17.11c-.45.45-1.15.72-2.02.72-1.43,0-2.22-.69-2.72-1.66.49-.31.98-.61,1.49-.9.21.58.9,1.23,1.69.83.5-.25.44-1.02.44-1.86v-5.3s0-.05.02-.06h1.78v4.45c0,1.61.12,2.97-.68,3.77ZM17.81,15.51c-.1,1.51-1.33,2.31-3,2.32-1.63,0-2.67-.72-3.31-1.84.46-.31.98-.57,1.45-.86.38.6,1.04,1.17,2.02,1.09.61-.05,1.32-.55.92-1.31-.19-.37-.66-.55-1.09-.74-1.34-.58-2.91-1.12-2.76-3.22.05-.7.37-1.19.79-1.54.43-.36,1-.6,1.77-.63,1.39-.04,2.15.57,2.67,1.43-.44.34-.93.63-1.42.92-.16-.49-.93-.97-1.58-.68-.29.13-.56.52-.4.99.14.42.7.65,1.16.85,1.38.59,2.92,1.17,2.78,3.22Z"/>
    </g>
  </g>
</svg>