<?xml version="1.0" encoding="UTF-8"?>
<svg id="Capa_2" data-name="Capa 2" xmlns="http://www.w3.org/2000/svg" viewBox="0 0 8.68 19.35">
  <defs>
    <style>
      .cls-1 {
        fill: #1c2541;
      }
    </style>
  </defs>
  <g id="Capa_1-2" data-name="Capa 1">
    <path class="cls-1" d="M4.22,14.31s0-6.69.22-6.69c.17,0,.39,8.62.39,8.62-.31-.04-.62-1.42-.62-1.94h0ZM8.53,7.7c-.59-2.59-1.89-4.82-3.68-6.54h0c-.22-.34-.42-.72-.58-1.12l-.02-.04s0,.03,0,.04c0,.36-.16.69-.42.91h0C1.52,2.91.05,5.8,0,9.03H0s0,.1,0,.14c0,3.2,1.54,6.04,3.92,7.82l.03.02.06.04c.1.77.19,1.54.27,2.31h.39c.11-.96.25-1.8.44-2.63l-.03.15c.26-.18.48-.36.69-.56h0c1.81-1.67,2.94-4.06,2.94-6.71,0-.04,0-.08,0-.12h0c0-.63-.06-1.25-.17-1.85v.06s.01,0,.01,0Z"/>
  </g>
</svg>