<?xml version="1.0" encoding="UTF-8"?>
<svg id="Capa_2" data-name="Capa 2" xmlns="http://www.w3.org/2000/svg" viewBox="0 0 13.77 19.35">
  <defs>
    <style>
      .cls-1 {
        fill: #1c2541;
      }
    </style>
  </defs>
  <g id="Capa_1-2" data-name="Capa 1">
    <g>
      <path class="cls-1" d="M1.75,9.16c1.65.58,3.39.86,5.14.82,1.75.03,3.49-.24,5.14-.83,1.29-.5,1.75-1.06,1.75-1.38v-2.46c-.45.3-.93.55-1.44.74-1.75.63-3.59.93-5.45.9-1.85.03-3.7-.27-5.45-.9C.93,5.87.45,5.62,0,5.32v2.45C0,8.1.46,8.66,1.75,9.16Z"/>
      <path class="cls-1" d="M1.75,13.8c.58.22,1.18.39,1.8.51,1.1.21,2.22.32,3.34.31,1.12,0,2.24-.1,3.34-.31.61-.12,1.21-.29,1.8-.51,1.29-.5,1.75-1.06,1.75-1.38v-2.34c-.37.22-.76.41-1.17.57-1.83.65-3.77.96-5.72.93-1.95.03-3.88-.28-5.72-.93C.76,10.48.37,10.29,0,10.07v2.35C0,12.74.46,13.29,1.75,13.8Z"/>
      <path class="cls-1" d="M6.89,19.35c3.8,0,6.89-1.21,6.89-2.69v-1.96c-.34.2-.69.38-1.06.53l-.11.04c-1.83.65-3.77.97-5.72.93-1.95.03-3.88-.28-5.72-.93-.04-.01-.07-.03-.11-.04C.69,15.08.34,14.9,0,14.7v1.96C0,18.15,3.08,19.35,6.89,19.35Z"/>
      <ellipse class="cls-1" cx="6.89" cy="2.69" rx="6.89" ry="2.69"/>
    </g>
  </g>
</svg>