<?xml version="1.0" encoding="UTF-8"?>
<svg id="Capa_2" data-name="Capa 2" xmlns="http://www.w3.org/2000/svg" viewBox="0 0 17.86 19.35">
  <defs>
    <style>
      .cls-1 {
        fill: #1c2541;
      }
    </style>
  </defs>
  <g id="Capa_1-2" data-name="Capa 1">
    <path class="cls-1" d="M8.93,0c-.27,0-.54.07-.78.2L.77,4.46c-.48.28-.77.8-.77,1.35v7.73c0,.56.3,1.07.77,1.35l1.94,1.12c.94.46,1.27.46,1.7.46,1.39,0,2.19-.84,2.19-2.3v-7.97c0-.12-.1-.22-.22-.22h-.93c-.13,0-.22.1-.22.22v7.96c0,.65-.68,1.29-1.77.75l-2.03-1.17c-.07-.04-.12-.12-.12-.2v-7.72c0-.09.04-.16.12-.21L8.81,1.35c.07-.04.16-.04.23,0l7.38,4.26c.07.04.12.12.12.2v7.73c0,.08-.04.16-.11.2l-7.38,4.27c-.07.04-.16.04-.23,0l-1.9-1.12c-.05-.04-.13-.04-.18-.01-.53.3-.63.33-1.12.51-.12.04-.31.11.07.32l2.46,1.46c.24.13.51.21.77.21s.54-.07.78-.21l7.38-4.27c.48-.28.77-.79.77-1.35v-7.72c0-.56-.3-1.07-.77-1.35L9.71.2c-.23-.13-.51-.2-.78-.2ZM10.91,5.96c-2.11,0-3.36.89-3.36,2.38,0,1.62,1.25,2.06,3.27,2.26,2.42.24,2.61.6,2.61,1.07,0,.82-.66,1.17-2.22,1.17-1.96,0-2.39-.49-2.53-1.46-.01-.1-.1-.18-.21-.18h-.96c-.12,0-.21.1-.21.21,0,1.24.68,2.72,3.91,2.72,2.34,0,3.68-.92,3.68-2.53s-1.08-2.02-3.34-2.32c-2.3-.3-2.53-.45-2.53-.99,0-.45.2-1.03,1.9-1.03,1.51,0,2.08.33,2.31,1.35.02.1.1.17.21.17h.96c.06,0,.11-.03.16-.07.04-.04.06-.1.05-.16-.15-1.76-1.32-2.58-3.68-2.58Z"/>
  </g>
</svg>