<?xml version="1.0" encoding="UTF-8"?>
<svg id="Capa_2" data-name="Capa 2" xmlns="http://www.w3.org/2000/svg" viewBox="0 0 21.08 21.08">
  <defs>
    <style>
      .cls-1 {
        fill: #1c2541;
      }
    </style>
  </defs>
  <g id="Capa_1-2" data-name="Capa 1">
    <g id="_2069a460dcf28295e231f3111e037552" data-name="2069a460dcf28295e231f3111e037552">
      <path class="cls-1" d="M17.56,0H3.51C1.58,0,0,1.58,0,3.51v14.05c0,1.93,1.58,3.51,3.51,3.51h14.05c1.93,0,3.51-1.58,3.51-3.51V3.51c0-1.93-1.58-3.51-3.51-3.51ZM10.1,10.72c-.73.73-1.88,1.08-3.18,1.08-.34,0-.66-.02-.9-.06v3.79h-1.82V5.6c.66-.12,1.57-.21,2.81-.21,1.34,0,2.33.28,2.97.82.6.49.99,1.28.99,2.22,0,.96-.3,1.75-.87,2.28ZM13.92,15.68c-.88,0-1.67-.21-2.21-.51l.36-1.33c.42.25,1.21.52,1.87.52.81,0,1.16-.33,1.16-.81s-.3-.75-1.19-1.06c-1.42-.49-2.02-1.27-2-2.12,0-1.28,1.06-2.28,2.75-2.28.81,0,1.51.21,1.93.43l-.36,1.3c-.31-.18-.9-.42-1.54-.42s-1.02.31-1.02.76.34.69,1.27,1.02c1.31.48,1.93,1.15,1.94,2.22,0,1.31-1.03,2.27-2.96,2.27ZM9.13,8.52c0,1.18-.84,1.85-2.21,1.85-.37,0-.67-.01-.9-.07v-3.4c.19-.04.55-.09,1.06-.09,1.27,0,2.05.6,2.05,1.72Z"/>
    </g>
  </g>
</svg>